<svg width="203" height="214" viewBox="0 0 203 214" fill="none" xmlns="http://www.w3.org/2000/svg">
<g clip-path="url(#clip0_284_8)">
<path d="M102.493 127.449C111.739 127.449 119.235 119.884 119.235 110.551C119.235 101.219 111.739 93.6537 102.493 93.6537C93.247 93.6537 85.7515 101.219 85.7515 110.551C85.7515 119.884 93.247 127.449 102.493 127.449Z" fill="#F2F3F8"/>
<path d="M186.202 127.449C195.448 127.449 202.943 119.884 202.943 110.551C202.943 101.219 195.448 93.6537 186.202 93.6537C176.955 93.6537 169.46 101.219 169.46 110.551C169.46 119.884 176.955 127.449 186.202 127.449Z" fill="#F2F3F8"/>
<path d="M102.493 214C45.9687 214 0 167.603 0 110.551C0 53.5 45.9687 7.10278 102.493 7.10278C127.18 7.10278 150.959 16.1531 169.687 32.5353C175.873 37.977 177.802 47.2564 173.489 54.3592C167.871 63.6387 155.726 65.1852 148.065 58.3688C127.407 39.9818 97.272 35.113 70.7123 48.6884C51.4736 58.5407 37.7965 77.5578 34.3346 99.0953C27.411 142.571 60.6673 180.319 102.436 180.319C118.838 180.319 134.671 174.362 147.213 163.536C154.08 157.636 164.409 157.063 170.822 163.536C177.802 170.467 177.348 181.808 170.141 188.224C151.356 204.95 127.35 214.115 102.436 214.115L102.493 214Z" fill="#F2F3F8"/>
<path d="M33.3699 73.1472V0C14.9824 0 0.113495 15.0648 0.113495 33.5664V110.551C8.56946 95.8876 19.9198 83.1713 33.3699 73.2045V73.1472Z" fill="#F2F3F8"/>
<path d="M102.493 214C45.9687 214 0 167.603 0 110.551C0 53.5 45.9687 7.10278 102.493 7.10278C127.18 7.10278 150.959 16.1531 169.687 32.5353C175.873 37.977 177.802 47.2564 173.489 54.3592C167.871 63.6387 155.726 65.1852 148.065 58.3688C127.407 39.9818 97.272 35.113 70.7123 48.6884C51.4736 58.5407 37.7965 77.5578 34.3346 99.0953C27.411 142.571 60.6673 180.319 102.436 180.319C118.838 180.319 134.671 174.362 147.213 163.536C154.08 157.636 164.409 157.063 170.822 163.536C177.802 170.467 177.348 181.808 170.141 188.224C151.356 204.95 127.35 214.115 102.436 214.115L102.493 214Z" fill="#F2F3F8"/>
</g>
<defs>
<clipPath id="clip0_284_8">
<rect width="203" height="214" fill="white"/>
</clipPath>
</defs>
</svg>
