<svg width="1728" height="457" viewBox="0 0 1728 457" fill="none" xmlns="http://www.w3.org/2000/svg">
<mask id="mask0_188_14" style="mask-type:alpha" maskUnits="userSpaceOnUse" x="0" y="0" width="1728" height="457">
<rect width="1728" height="457" fill="url(#paint0_linear_188_14)"/>
</mask>
<g mask="url(#mask0_188_14)">
<line x1="-1.53974e-08" y1="69.875" x2="1728" y2="69.8749" stroke="url(#paint1_linear_188_14)" stroke-opacity="0.25" stroke-width="0.25"/>
<line x1="-1.53974e-08" y1="2.47607" x2="1728" y2="2.47597" stroke="url(#paint2_linear_188_14)" stroke-opacity="0.25" stroke-width="0.25"/>
<line x1="-1.53974e-08" y1="387.196" x2="1728" y2="387.196" stroke="url(#paint3_linear_188_14)" stroke-opacity="0.25" stroke-width="0.25"/>
<line x1="407.875" y1="907" x2="407.875" y2="-137" stroke="url(#paint4_linear_188_14)" stroke-opacity="0.25" stroke-width="0.25"/>
<line x1="1225.88" y1="907" x2="1225.87" y2="-137" stroke="url(#paint5_linear_188_14)" stroke-opacity="0.25" stroke-width="0.25"/>
<line x1="511.875" y1="907" x2="511.875" y2="-137" stroke="url(#paint6_linear_188_14)" stroke-opacity="0.25" stroke-width="0.25"/>
<line x1="1329.88" y1="907" x2="1329.87" y2="-137" stroke="url(#paint7_linear_188_14)" stroke-opacity="0.25" stroke-width="0.25"/>
<ellipse cx="1330.64" cy="387.129" rx="2.48401" ry="2.12915" fill="#D9D9D9"/>
<circle cx="511.98" cy="69.5281" r="2.12915" fill="#D9D9D9"/>
<circle cx="511.98" cy="2.12915" r="2.12915" fill="#D9D9D9"/>
<circle cx="511.98" cy="387.129" r="2.12915" fill="#D9D9D9"/>
<ellipse cx="1330.64" cy="69.5281" rx="2.48401" ry="2.12915" fill="#D9D9D9"/>
<ellipse cx="1330.64" cy="2.12915" rx="2.48401" ry="2.12915" fill="#D9D9D9"/>
<circle cx="407.651" cy="69.5281" r="2.12915" fill="#D9D9D9"/>
<circle cx="407.651" cy="2.12915" r="2.12915" fill="#D9D9D9"/>
<ellipse cx="1226.31" cy="387.129" rx="2.48401" ry="2.12915" fill="#D9D9D9"/>
<path d="M409.78 387.129C409.78 388.305 408.827 389.258 407.651 389.258C406.475 389.258 405.522 388.305 405.522 387.129C405.522 385.953 406.475 385 407.651 385C408.827 385 409.78 385.953 409.78 387.129Z" fill="#D9D9D9"/>
<ellipse cx="1226.31" cy="69.5281" rx="2.48401" ry="2.12915" fill="#D9D9D9"/>
<ellipse cx="1226.31" cy="2.12915" rx="2.48401" ry="2.12915" fill="#D9D9D9"/>
</g>
<path d="M727.66 427.32C730.234 427.32 732.32 425.234 732.32 422.66C732.32 420.086 730.234 418 727.66 418C725.086 418 723 420.086 723 422.66C723 425.234 725.086 427.32 727.66 427.32Z" stroke="white" stroke-width="0.5" stroke-miterlimit="10"/>
<path d="M729.731 420.958C729.233 420.342 728.474 419.948 727.621 419.948C726.123 419.948 724.909 421.162 724.909 422.66C724.909 424.158 726.123 425.372 727.621 425.372C728.433 425.372 729.16 425.013 729.658 424.447" stroke="white" stroke-width="0.5" stroke-miterlimit="10"/>
<path d="M743.68 428H737.48C737.192 428 737.048 427.859 737.048 427.576C737.048 426.968 737.131 426.445 737.296 426.008C737.461 425.571 737.701 425.184 738.016 424.848C738.336 424.507 738.723 424.187 739.176 423.888C739.635 423.589 740.152 423.275 740.728 422.944C741.256 422.64 741.701 422.371 742.064 422.136C742.427 421.896 742.701 421.645 742.888 421.384C743.08 421.117 743.176 420.789 743.176 420.4C743.176 419.701 743.04 419.216 742.768 418.944C742.496 418.667 742.008 418.528 741.304 418.528H739.592C738.973 418.528 738.523 418.635 738.24 418.848C737.963 419.061 737.8 419.435 737.752 419.968C737.736 420.107 737.693 420.211 737.624 420.28C737.555 420.349 737.453 420.384 737.32 420.384C737.181 420.384 737.075 420.347 737 420.272C736.925 420.192 736.893 420.083 736.904 419.944C736.968 419.171 737.219 418.603 737.656 418.24C738.093 417.872 738.739 417.688 739.592 417.688H741.304C742.237 417.688 742.923 417.907 743.36 418.344C743.797 418.781 744.016 419.467 744.016 420.4C744.016 420.949 743.885 421.413 743.624 421.792C743.368 422.165 743.021 422.499 742.584 422.792C742.152 423.08 741.672 423.373 741.144 423.672C740.467 424.061 739.899 424.413 739.44 424.728C738.981 425.037 738.624 425.379 738.368 425.752C738.117 426.12 737.965 426.589 737.912 427.16H743.68C743.963 427.16 744.104 427.299 744.104 427.576C744.104 427.859 743.963 428 743.68 428ZM749.486 428.032C748.329 428.032 747.483 427.765 746.95 427.232C746.417 426.699 746.15 425.853 746.15 424.696V421.048C746.15 419.891 746.417 419.048 746.95 418.52C747.489 417.992 748.334 417.731 749.486 417.736H750.446C751.603 417.736 752.446 418.003 752.974 418.536C753.507 419.064 753.774 419.907 753.774 421.064V424.696C753.774 425.853 753.507 426.699 752.974 427.232C752.446 427.765 751.603 428.032 750.446 428.032H749.486ZM749.486 427.192H750.446C751.059 427.192 751.547 427.112 751.91 426.952C752.273 426.792 752.534 426.531 752.694 426.168C752.854 425.8 752.934 425.309 752.934 424.696V421.064C752.934 420.451 752.854 419.963 752.694 419.6C752.534 419.237 752.273 418.976 751.91 418.816C751.547 418.656 751.059 418.576 750.446 418.576H749.486C748.873 418.571 748.382 418.648 748.014 418.808C747.651 418.963 747.39 419.221 747.23 419.584C747.07 419.947 746.99 420.435 746.99 421.048V424.696C746.99 425.309 747.07 425.8 747.23 426.168C747.39 426.531 747.651 426.792 748.014 426.952C748.377 427.112 748.867 427.192 749.486 427.192ZM749.822 423.512C749.513 423.512 749.358 423.355 749.358 423.04V422.736C749.358 422.432 749.513 422.28 749.822 422.28H750.118C750.422 422.28 750.574 422.432 750.574 422.736V423.04C750.574 423.355 750.422 423.512 750.118 423.512H749.822ZM762.524 428H756.324C756.036 428 755.892 427.859 755.892 427.576C755.892 426.968 755.974 426.445 756.14 426.008C756.305 425.571 756.545 425.184 756.86 424.848C757.18 424.507 757.566 424.187 758.02 423.888C758.478 423.589 758.996 423.275 759.572 422.944C760.1 422.64 760.545 422.371 760.908 422.136C761.27 421.896 761.545 421.645 761.732 421.384C761.924 421.117 762.02 420.789 762.02 420.4C762.02 419.701 761.884 419.216 761.612 418.944C761.34 418.667 760.852 418.528 760.148 418.528H758.436C757.817 418.528 757.366 418.635 757.084 418.848C756.806 419.061 756.644 419.435 756.596 419.968C756.58 420.107 756.537 420.211 756.468 420.28C756.398 420.349 756.297 420.384 756.164 420.384C756.025 420.384 755.918 420.347 755.844 420.272C755.769 420.192 755.737 420.083 755.748 419.944C755.812 419.171 756.062 418.603 756.5 418.24C756.937 417.872 757.582 417.688 758.436 417.688H760.148C761.081 417.688 761.766 417.907 762.204 418.344C762.641 418.781 762.86 419.467 762.86 420.4C762.86 420.949 762.729 421.413 762.468 421.792C762.212 422.165 761.865 422.499 761.428 422.792C760.996 423.08 760.516 423.373 759.988 423.672C759.31 424.061 758.742 424.413 758.284 424.728C757.825 425.037 757.468 425.379 757.212 425.752C756.961 426.12 756.809 426.589 756.756 427.16H762.524C762.806 427.16 762.948 427.299 762.948 427.576C762.948 427.859 762.806 428 762.524 428ZM767.842 428C766.935 428 766.25 427.805 765.786 427.416C765.322 427.027 765.058 426.416 764.994 425.584C764.983 425.445 765.015 425.339 765.09 425.264C765.165 425.184 765.271 425.144 765.41 425.144C765.671 425.144 765.813 425.283 765.834 425.56C765.887 426.152 766.063 426.568 766.362 426.808C766.666 427.043 767.159 427.16 767.842 427.16H769.506C770.269 427.16 770.797 427.011 771.09 426.712C771.389 426.408 771.538 425.88 771.538 425.128V424.024C771.538 423.272 771.389 422.747 771.09 422.448C770.791 422.149 770.263 422 769.506 422H768.322C767.325 422 766.634 422.171 766.25 422.512C766.165 422.587 766.079 422.64 765.994 422.672C765.909 422.704 765.807 422.701 765.69 422.664L765.602 422.64C765.367 422.576 765.25 422.421 765.25 422.176V418.112C765.25 417.829 765.389 417.688 765.666 417.688H771.874C772.151 417.688 772.29 417.829 772.29 418.112C772.29 418.389 772.151 418.528 771.874 418.528H766.09V421.6C766.623 421.307 767.367 421.16 768.322 421.16H769.506C770.498 421.16 771.223 421.389 771.682 421.848C772.146 422.307 772.378 423.032 772.378 424.024V425.128C772.378 426.12 772.146 426.848 771.682 427.312C771.223 427.771 770.498 428 769.506 428H767.842ZM779.389 428C779.106 428 778.965 427.859 778.965 427.576V418.112C778.965 417.829 779.106 417.688 779.389 417.688H783.565C784.349 417.688 784.941 417.888 785.341 418.288C785.746 418.683 785.949 419.264 785.949 420.032V420.464C785.949 421.301 785.679 421.893 785.141 422.24C786.074 422.624 786.541 423.456 786.541 424.736V425.24C786.541 426.147 786.306 426.835 785.837 427.304C785.373 427.768 784.685 428 783.773 428H779.389ZM779.805 427.16H783.773C784.45 427.16 784.941 427.008 785.245 426.704C785.549 426.4 785.701 425.912 785.701 425.24V424.736C785.701 424.064 785.549 423.579 785.245 423.28C784.946 422.981 784.455 422.832 783.773 422.832H779.805V427.16ZM779.805 421.992H783.685C784.17 421.992 784.527 421.869 784.757 421.624C784.991 421.373 785.109 420.987 785.109 420.464V420.032C785.109 419.499 784.986 419.115 784.741 418.88C784.501 418.645 784.109 418.528 783.565 418.528H779.805V421.992ZM792.007 428C790.849 428 790.004 427.733 789.471 427.2C788.937 426.667 788.671 425.821 788.671 424.664V421.024C788.671 419.856 788.935 419.008 789.463 418.48C789.996 417.952 790.839 417.688 791.991 417.688H793.927C794.908 417.688 795.639 417.893 796.119 418.304C796.599 418.709 796.863 419.363 796.911 420.264C796.927 420.408 796.897 420.517 796.823 420.592C796.753 420.667 796.649 420.704 796.511 420.704C796.244 420.704 796.097 420.563 796.071 420.28C796.033 419.619 795.852 419.163 795.527 418.912C795.201 418.656 794.668 418.528 793.927 418.528H791.991C791.377 418.528 790.889 418.608 790.527 418.768C790.164 418.923 789.903 419.184 789.743 419.552C789.588 419.915 789.511 420.405 789.511 421.024V424.664C789.511 425.283 789.591 425.773 789.751 426.136C789.911 426.499 790.172 426.76 790.535 426.92C790.897 427.08 791.388 427.16 792.007 427.16H793.927C794.668 427.16 795.201 427.035 795.527 426.784C795.852 426.528 796.033 426.069 796.071 425.408C796.097 425.125 796.244 424.984 796.511 424.984C796.649 424.984 796.753 425.024 796.823 425.104C796.897 425.179 796.927 425.285 796.911 425.424C796.863 426.325 796.599 426.981 796.119 427.392C795.639 427.797 794.908 428 793.927 428H792.007ZM806.191 427.984C805.236 427.984 804.527 427.773 804.063 427.352C803.604 426.925 803.359 426.256 803.327 425.344C803.322 425.216 803.356 425.115 803.431 425.04C803.511 424.96 803.615 424.92 803.743 424.92C803.871 424.92 803.972 424.957 804.047 425.032C804.122 425.107 804.164 425.208 804.175 425.336C804.196 426.008 804.356 426.477 804.655 426.744C804.954 427.011 805.466 427.144 806.191 427.144H808.495C809.252 427.144 809.778 426.997 810.071 426.704C810.37 426.405 810.519 425.883 810.519 425.136C810.519 424.379 810.37 423.853 810.071 423.56C809.778 423.261 809.252 423.112 808.495 423.112H806.303C805.364 423.112 804.676 422.893 804.239 422.456C803.802 422.019 803.583 421.333 803.583 420.4C803.583 419.467 803.799 418.781 804.231 418.344C804.668 417.907 805.354 417.688 806.287 417.688H808.527C809.423 417.688 810.087 417.888 810.519 418.288C810.956 418.688 811.191 419.317 811.223 420.176C811.234 420.304 811.199 420.408 811.119 420.488C811.044 420.563 810.94 420.6 810.807 420.6C810.684 420.6 810.586 420.563 810.511 420.488C810.436 420.413 810.394 420.312 810.383 420.184C810.362 419.571 810.212 419.141 809.935 418.896C809.658 418.651 809.188 418.528 808.527 418.528H806.287C805.588 418.528 805.103 418.667 804.831 418.944C804.559 419.216 804.423 419.701 804.423 420.4C804.423 421.099 804.559 421.587 804.831 421.864C805.108 422.136 805.599 422.272 806.303 422.272H808.495C809.487 422.272 810.212 422.504 810.671 422.968C811.13 423.427 811.359 424.149 811.359 425.136C811.359 426.123 811.13 426.845 810.671 427.304C810.212 427.757 809.487 427.984 808.495 427.984H806.191ZM816.809 428C815.811 428 815.081 427.771 814.617 427.312C814.153 426.848 813.921 426.12 813.921 425.128V423.32C813.921 422.312 814.153 421.579 814.617 421.12C815.081 420.656 815.811 420.429 816.809 420.44H818.121C819.118 420.44 819.846 420.672 820.305 421.136C820.769 421.595 821.001 422.323 821.001 423.32V425.112C821.001 426.109 820.769 426.84 820.305 427.304C819.846 427.768 819.118 428 818.121 428H816.809ZM814.761 425.128C814.761 425.88 814.91 426.408 815.209 426.712C815.513 427.011 816.046 427.16 816.809 427.16H818.121C818.883 427.16 819.414 427.011 819.713 426.712C820.011 426.408 820.161 425.875 820.161 425.112V423.32C820.161 422.557 820.011 422.027 819.713 421.728C819.414 421.429 818.883 421.28 818.121 421.28H816.809C816.297 421.275 815.891 421.336 815.593 421.464C815.294 421.592 815.081 421.805 814.953 422.104C814.825 422.403 814.761 422.808 814.761 423.32V425.128ZM825.977 428C825.22 428 824.663 427.824 824.305 427.472C823.953 427.12 823.777 426.568 823.777 425.816V417.32C823.777 417.043 823.919 416.904 824.201 416.904C824.479 416.904 824.617 417.043 824.617 417.32V425.816C824.617 426.333 824.713 426.688 824.905 426.88C825.097 427.067 825.452 427.16 825.969 427.16C826.257 427.16 826.401 427.299 826.401 427.576C826.407 427.859 826.265 428 825.977 428ZM834.786 420.44C835.068 420.44 835.21 420.579 835.21 420.856V427.576C835.21 427.859 835.068 428 834.786 428C834.508 428 834.37 427.859 834.37 427.576V426.816C833.863 427.605 832.946 428 831.618 428H831.17C830.172 428 829.442 427.768 828.978 427.304C828.519 426.84 828.29 426.109 828.29 425.112V420.856C828.29 420.579 828.428 420.44 828.706 420.44C828.988 420.44 829.13 420.579 829.13 420.856V425.112C829.13 425.875 829.279 426.408 829.578 426.712C829.882 427.011 830.412 427.16 831.17 427.16H831.618C832.444 427.16 833.095 427.027 833.57 426.76C834.044 426.493 834.311 426.085 834.37 425.536V420.856C834.37 420.579 834.508 420.44 834.786 420.44ZM841.287 428C840.306 428 839.588 427.773 839.135 427.32C838.682 426.867 838.455 426.152 838.455 425.176V421.28H837.503C837.22 421.28 837.079 421.139 837.079 420.856C837.079 420.579 837.22 420.44 837.503 420.44H838.455V418.72C838.455 418.437 838.594 418.296 838.871 418.296C839.154 418.296 839.295 418.437 839.295 418.72V420.44H841.303C841.58 420.44 841.719 420.579 841.719 420.856C841.719 421.139 841.58 421.28 841.303 421.28H839.295V425.176C839.295 425.923 839.439 426.44 839.727 426.728C840.02 427.016 840.54 427.16 841.287 427.16C841.442 427.16 841.551 427.195 841.615 427.264C841.684 427.333 841.719 427.437 841.719 427.576C841.719 427.859 841.575 428 841.287 428ZM844.174 418.984C843.806 418.984 843.622 418.795 843.622 418.416V418.056C843.622 417.688 843.806 417.504 844.174 417.504H844.534C844.891 417.504 845.07 417.688 845.07 418.056V418.416C845.07 418.795 844.891 418.984 844.534 418.984H844.174ZM844.358 428C844.075 428 843.934 427.859 843.934 427.576V420.856C843.934 420.579 844.075 420.44 844.358 420.44C844.635 420.44 844.774 420.579 844.774 420.856V427.576C844.774 427.859 844.635 428 844.358 428ZM850.434 428C849.436 428 848.706 427.771 848.242 427.312C847.778 426.848 847.546 426.12 847.546 425.128V423.32C847.546 422.312 847.778 421.579 848.242 421.12C848.706 420.656 849.436 420.429 850.434 420.44H851.746C852.743 420.44 853.471 420.672 853.93 421.136C854.394 421.595 854.626 422.323 854.626 423.32V425.112C854.626 426.109 854.394 426.84 853.93 427.304C853.471 427.768 852.743 428 851.746 428H850.434ZM848.386 425.128C848.386 425.88 848.535 426.408 848.834 426.712C849.138 427.011 849.671 427.16 850.434 427.16H851.746C852.508 427.16 853.039 427.011 853.338 426.712C853.636 426.408 853.786 425.875 853.786 425.112V423.32C853.786 422.557 853.636 422.027 853.338 421.728C853.039 421.429 852.508 421.28 851.746 421.28H850.434C849.922 421.275 849.516 421.336 849.218 421.464C848.919 421.592 848.706 421.805 848.578 422.104C848.45 422.403 848.386 422.808 848.386 423.32V425.128ZM857.826 428C857.544 428 857.402 427.859 857.402 427.576V420.856C857.402 420.579 857.544 420.44 857.826 420.44C858.104 420.44 858.242 420.579 858.242 420.856V421.624C858.749 420.835 859.666 420.44 860.994 420.44H861.442C862.44 420.44 863.168 420.672 863.626 421.136C864.09 421.595 864.322 422.323 864.322 423.32V427.576C864.322 427.859 864.184 428 863.906 428C863.624 428 863.482 427.859 863.482 427.576V423.32C863.482 422.557 863.33 422.027 863.026 421.728C862.728 421.429 862.2 421.28 861.442 421.28H860.994C860.168 421.28 859.517 421.411 859.042 421.672C858.568 421.933 858.301 422.341 858.242 422.896V427.576C858.242 427.859 858.104 428 857.826 428ZM868.824 427.984C868.168 427.984 867.667 427.845 867.32 427.568C866.973 427.285 866.765 426.856 866.696 426.28C866.68 426.141 866.709 426.035 866.784 425.96C866.859 425.88 866.968 425.84 867.112 425.84C867.245 425.84 867.344 425.875 867.408 425.944C867.477 426.013 867.523 426.117 867.544 426.256C867.592 426.587 867.712 426.819 867.904 426.952C868.101 427.08 868.408 427.144 868.824 427.144H871.448C871.944 427.144 872.285 427.051 872.472 426.864C872.659 426.677 872.752 426.336 872.752 425.84C872.752 425.339 872.659 424.995 872.472 424.808C872.285 424.621 871.944 424.528 871.448 424.528H868.856C868.163 424.528 867.645 424.363 867.304 424.032C866.968 423.696 866.8 423.181 866.8 422.488C866.8 421.779 866.968 421.259 867.304 420.928C867.64 420.592 868.157 420.424 868.856 420.424H871.368C872.573 420.424 873.243 420.957 873.376 422.024C873.397 422.163 873.368 422.272 873.288 422.352C873.213 422.427 873.107 422.464 872.968 422.464C872.835 422.464 872.733 422.429 872.664 422.36C872.6 422.291 872.555 422.189 872.528 422.056C872.491 421.757 872.381 421.552 872.2 421.44C872.024 421.323 871.747 421.264 871.368 421.264H868.856C868.392 421.264 868.072 421.349 867.896 421.52C867.725 421.691 867.64 422.013 867.64 422.488C867.64 422.941 867.728 423.256 867.904 423.432C868.08 423.603 868.397 423.688 868.856 423.688H871.448C872.184 423.688 872.725 423.864 873.072 424.216C873.419 424.563 873.592 425.104 873.592 425.84C873.592 426.571 873.419 427.112 873.072 427.464C872.725 427.811 872.184 427.984 871.448 427.984H868.824ZM880.193 424.072C880.086 424.072 879.993 424.035 879.913 423.96C879.838 423.88 879.801 423.787 879.801 423.68C879.801 423.568 879.838 423.475 879.913 423.4C879.993 423.325 880.086 423.288 880.193 423.288H884.609C884.721 423.288 884.814 423.325 884.889 423.4C884.964 423.475 885.001 423.568 885.001 423.68C885.001 423.787 884.964 423.88 884.889 423.96C884.814 424.035 884.721 424.072 884.609 424.072H880.193ZM894.996 428C894.814 428 894.684 427.904 894.604 427.712L890.451 418.288C890.382 418.133 890.382 418.005 890.451 417.904C890.526 417.803 890.628 417.739 890.756 417.712C890.974 417.659 891.126 417.739 891.212 417.952L895.212 427.024H894.916L898.892 417.952C898.977 417.739 899.132 417.659 899.356 417.712C899.494 417.739 899.596 417.803 899.66 417.904C899.724 418.005 899.724 418.133 899.66 418.288L895.492 427.712C895.412 427.904 895.276 428 895.084 428H894.996ZM900.126 427.96C899.87 427.848 899.792 427.661 899.894 427.4L903.862 418.016C903.947 417.797 904.104 417.688 904.334 417.688H904.382C904.6 417.693 904.755 417.803 904.846 418.016L908.814 427.4C908.92 427.661 908.846 427.848 908.59 427.96C908.328 428.067 908.147 427.992 908.046 427.736L906.982 425.216H901.742L900.678 427.736C900.571 427.992 900.387 428.067 900.126 427.96ZM902.086 424.376H906.63L904.358 419.016L902.086 424.376ZM912.528 428.008C912.4 428.008 912.296 427.971 912.216 427.896C912.142 427.821 912.104 427.72 912.104 427.592V418.52H908.704C908.576 418.52 908.472 418.483 908.392 418.408C908.318 418.333 908.28 418.232 908.28 418.104C908.28 417.976 908.318 417.875 908.392 417.8C908.472 417.72 908.576 417.68 908.704 417.68H916.352C916.48 417.68 916.582 417.72 916.656 417.8C916.731 417.875 916.768 417.976 916.768 418.104C916.768 418.232 916.731 418.333 916.656 418.408C916.582 418.483 916.48 418.52 916.352 418.52H912.944V427.592C912.944 427.715 912.904 427.816 912.824 427.896C912.75 427.971 912.651 428.008 912.528 428.008ZM928.758 428H922.558C922.27 428 922.126 427.859 922.126 427.576C922.126 426.968 922.209 426.445 922.374 426.008C922.539 425.571 922.779 425.184 923.094 424.848C923.414 424.507 923.801 424.187 924.254 423.888C924.713 423.589 925.23 423.275 925.806 422.944C926.334 422.64 926.779 422.371 927.142 422.136C927.505 421.896 927.779 421.645 927.966 421.384C928.158 421.117 928.254 420.789 928.254 420.4C928.254 419.701 928.118 419.216 927.846 418.944C927.574 418.667 927.086 418.528 926.382 418.528H924.67C924.051 418.528 923.601 418.635 923.318 418.848C923.041 419.061 922.878 419.435 922.83 419.968C922.814 420.107 922.771 420.211 922.702 420.28C922.633 420.349 922.531 420.384 922.398 420.384C922.259 420.384 922.153 420.347 922.078 420.272C922.003 420.192 921.971 420.083 921.982 419.944C922.046 419.171 922.297 418.603 922.734 418.24C923.171 417.872 923.817 417.688 924.67 417.688H926.382C927.315 417.688 928.001 417.907 928.438 418.344C928.875 418.781 929.094 419.467 929.094 420.4C929.094 420.949 928.963 421.413 928.702 421.792C928.446 422.165 928.099 422.499 927.662 422.792C927.23 423.08 926.75 423.373 926.222 423.672C925.545 424.061 924.977 424.413 924.518 424.728C924.059 425.037 923.702 425.379 923.446 425.752C923.195 426.12 923.043 426.589 922.99 427.16H928.758C929.041 427.16 929.182 427.299 929.182 427.576C929.182 427.859 929.041 428 928.758 428ZM937.436 422.656C938.338 423.061 938.788 423.891 938.788 425.144C938.788 426.131 938.559 426.853 938.1 427.312C937.642 427.771 936.916 428 935.924 428H934.1C933.108 428 932.38 427.771 931.916 427.312C931.458 426.853 931.228 426.131 931.228 425.144C931.228 423.875 931.698 423.037 932.636 422.632C931.922 422.2 931.564 421.451 931.564 420.384C931.564 419.456 931.783 418.776 932.22 418.344C932.658 417.907 933.343 417.688 934.276 417.688H935.828C936.762 417.688 937.444 417.907 937.876 418.344C938.314 418.776 938.532 419.456 938.532 420.384C938.532 421.477 938.167 422.235 937.436 422.656ZM934.276 418.528C933.578 418.528 933.09 418.667 932.812 418.944C932.54 419.216 932.404 419.696 932.404 420.384C932.404 421.099 932.54 421.597 932.812 421.88C933.084 422.157 933.554 422.296 934.22 422.296L936.068 422.288C936.484 422.288 936.81 422.219 937.044 422.08C937.284 421.936 937.452 421.725 937.548 421.448C937.644 421.165 937.692 420.811 937.692 420.384C937.692 419.696 937.556 419.216 937.284 418.944C937.012 418.667 936.527 418.528 935.828 418.528H934.276ZM935.924 427.16C936.682 427.16 937.207 427.013 937.5 426.72C937.799 426.421 937.948 425.896 937.948 425.144C937.948 424.392 937.799 423.869 937.5 423.576C937.207 423.283 936.682 423.136 935.924 423.136H934.1C933.338 423.136 932.807 423.283 932.508 423.576C932.215 423.869 932.068 424.392 932.068 425.144C932.068 425.896 932.215 426.421 932.508 426.72C932.807 427.013 933.338 427.16 934.1 427.16H935.924ZM947.539 428H941.339C941.051 428 940.907 427.859 940.907 427.576C940.907 426.968 940.99 426.445 941.155 426.008C941.321 425.571 941.561 425.184 941.875 424.848C942.195 424.507 942.582 424.187 943.035 423.888C943.494 423.589 944.011 423.275 944.587 422.944C945.115 422.64 945.561 422.371 945.923 422.136C946.286 421.896 946.561 421.645 946.747 421.384C946.939 421.117 947.035 420.789 947.035 420.4C947.035 419.701 946.899 419.216 946.627 418.944C946.355 418.667 945.867 418.528 945.163 418.528H943.451C942.833 418.528 942.382 418.635 942.099 418.848C941.822 419.061 941.659 419.435 941.611 419.968C941.595 420.107 941.553 420.211 941.483 420.28C941.414 420.349 941.313 420.384 941.179 420.384C941.041 420.384 940.934 420.347 940.859 420.272C940.785 420.192 940.753 420.083 940.763 419.944C940.827 419.171 941.078 418.603 941.515 418.24C941.953 417.872 942.598 417.688 943.451 417.688H945.163C946.097 417.688 946.782 417.907 947.219 418.344C947.657 418.781 947.875 419.467 947.875 420.4C947.875 420.949 947.745 421.413 947.483 421.792C947.227 422.165 946.881 422.499 946.443 422.792C946.011 423.08 945.531 423.373 945.003 423.672C944.326 424.061 943.758 424.413 943.299 424.728C942.841 425.037 942.483 425.379 942.227 425.752C941.977 426.12 941.825 426.589 941.771 427.16H947.539C947.822 427.16 947.963 427.299 947.963 427.576C947.963 427.859 947.822 428 947.539 428ZM952.329 427.984C951.422 427.984 950.737 427.792 950.273 427.408C949.809 427.019 949.545 426.408 949.481 425.576C949.47 425.437 949.502 425.331 949.577 425.256C949.652 425.176 949.758 425.136 949.897 425.136C950.158 425.136 950.3 425.275 950.321 425.552C950.374 426.144 950.55 426.557 950.849 426.792C951.153 427.027 951.646 427.144 952.329 427.144H954.153C954.916 427.144 955.444 426.997 955.737 426.704C956.036 426.405 956.185 425.883 956.185 425.136C956.185 424.384 956.036 423.861 955.737 423.568C955.444 423.269 954.916 423.12 954.153 423.12H952.673C952.39 423.12 952.249 422.981 952.249 422.704C952.249 422.421 952.39 422.28 952.673 422.28H954.369C954.961 422.275 955.369 422.117 955.593 421.808C955.817 421.493 955.929 421.024 955.929 420.4C955.929 419.701 955.793 419.216 955.521 418.944C955.249 418.667 954.761 418.528 954.057 418.528H952.505C951.886 418.528 951.436 418.635 951.153 418.848C950.876 419.061 950.713 419.435 950.665 419.968C950.633 420.245 950.489 420.384 950.233 420.384C950.094 420.384 949.988 420.347 949.913 420.272C949.838 420.192 949.809 420.083 949.825 419.944C949.884 419.171 950.132 418.603 950.569 418.24C951.006 417.872 951.652 417.688 952.505 417.688H954.057C954.99 417.688 955.676 417.907 956.113 418.344C956.55 418.781 956.769 419.467 956.769 420.4C956.769 421.472 956.382 422.205 955.609 422.6C956.1 422.808 956.457 423.123 956.681 423.544C956.91 423.96 957.025 424.491 957.025 425.136C957.025 426.117 956.796 426.837 956.337 427.296C955.878 427.755 955.15 427.984 954.153 427.984H952.329ZM960.453 428C960.171 428 960.032 427.853 960.037 427.56C960.043 426.808 960.08 426.147 960.149 425.576C960.219 425.005 960.336 424.501 960.501 424.064C960.667 423.627 960.899 423.229 961.197 422.872C961.501 422.515 961.888 422.173 962.357 421.848C962.741 421.576 963.051 421.288 963.285 420.984C963.52 420.68 963.693 420.333 963.805 419.944C963.923 419.549 963.992 419.077 964.013 418.528H958.741C958.459 418.528 958.317 418.389 958.317 418.112C958.317 417.829 958.459 417.688 958.741 417.688H964.437C964.715 417.688 964.853 417.829 964.853 418.112C964.853 418.832 964.787 419.459 964.653 419.992C964.525 420.525 964.312 420.997 964.013 421.408C963.72 421.813 963.328 422.187 962.837 422.528C962.459 422.795 962.144 423.069 961.893 423.352C961.643 423.635 961.443 423.96 961.293 424.328C961.149 424.691 961.045 425.133 960.981 425.656C960.923 426.179 960.888 426.813 960.877 427.56C960.872 427.853 960.731 428 960.453 428ZM973.071 428H966.871C966.583 428 966.439 427.859 966.439 427.576C966.439 426.968 966.521 426.445 966.687 426.008C966.852 425.571 967.092 425.184 967.407 424.848C967.727 424.507 968.113 424.187 968.567 423.888C969.025 423.589 969.543 423.275 970.119 422.944C970.647 422.64 971.092 422.371 971.455 422.136C971.817 421.896 972.092 421.645 972.279 421.384C972.471 421.117 972.567 420.789 972.567 420.4C972.567 419.701 972.431 419.216 972.159 418.944C971.887 418.667 971.399 418.528 970.695 418.528H968.983C968.364 418.528 967.913 418.635 967.631 418.848C967.353 419.061 967.191 419.435 967.143 419.968C967.127 420.107 967.084 420.211 967.015 420.28C966.945 420.349 966.844 420.384 966.711 420.384C966.572 420.384 966.465 420.347 966.391 420.272C966.316 420.192 966.284 420.083 966.295 419.944C966.359 419.171 966.609 418.603 967.047 418.24C967.484 417.872 968.129 417.688 968.983 417.688H970.695C971.628 417.688 972.313 417.907 972.751 418.344C973.188 418.781 973.407 419.467 973.407 420.4C973.407 420.949 973.276 421.413 973.015 421.792C972.759 422.165 972.412 422.499 971.975 422.792C971.543 423.08 971.063 423.373 970.535 423.672C969.857 424.061 969.289 424.413 968.831 424.728C968.372 425.037 968.015 425.379 967.759 425.752C967.508 426.12 967.356 426.589 967.303 427.16H973.071C973.353 427.16 973.495 427.299 973.495 427.576C973.495 427.859 973.353 428 973.071 428ZM977.64 428C977.358 428 977.216 427.859 977.216 427.576V418.688L977.6 418.632L975.864 420.328C975.768 420.424 975.672 420.475 975.576 420.48C975.48 420.485 975.384 420.44 975.288 420.344C975.107 420.152 975.11 419.955 975.296 419.752L977.192 417.904C977.32 417.76 977.494 417.688 977.712 417.688C977.942 417.688 978.056 417.829 978.056 418.112V427.576C978.056 427.859 977.918 428 977.64 428ZM986.936 422.656C987.838 423.061 988.288 423.891 988.288 425.144C988.288 426.131 988.059 426.853 987.6 427.312C987.142 427.771 986.416 428 985.424 428H983.6C982.608 428 981.88 427.771 981.416 427.312C980.958 426.853 980.728 426.131 980.728 425.144C980.728 423.875 981.198 423.037 982.136 422.632C981.422 422.2 981.064 421.451 981.064 420.384C981.064 419.456 981.283 418.776 981.72 418.344C982.158 417.907 982.843 417.688 983.776 417.688H985.328C986.262 417.688 986.944 417.907 987.376 418.344C987.814 418.776 988.032 419.456 988.032 420.384C988.032 421.477 987.667 422.235 986.936 422.656ZM983.776 418.528C983.078 418.528 982.59 418.667 982.312 418.944C982.04 419.216 981.904 419.696 981.904 420.384C981.904 421.099 982.04 421.597 982.312 421.88C982.584 422.157 983.054 422.296 983.72 422.296L985.568 422.288C985.984 422.288 986.31 422.219 986.544 422.08C986.784 421.936 986.952 421.725 987.048 421.448C987.144 421.165 987.192 420.811 987.192 420.384C987.192 419.696 987.056 419.216 986.784 418.944C986.512 418.667 986.027 418.528 985.328 418.528H983.776ZM985.424 427.16C986.182 427.16 986.707 427.013 987 426.72C987.299 426.421 987.448 425.896 987.448 425.144C987.448 424.392 987.299 423.869 987 423.576C986.707 423.283 986.182 423.136 985.424 423.136H983.6C982.838 423.136 982.307 423.283 982.008 423.576C981.715 423.869 981.568 424.392 981.568 425.144C981.568 425.896 981.715 426.421 982.008 426.72C982.307 427.013 982.838 427.16 983.6 427.16H985.424ZM997.039 428H990.839C990.551 428 990.407 427.859 990.407 427.576C990.407 426.968 990.49 426.445 990.655 426.008C990.821 425.571 991.061 425.184 991.375 424.848C991.695 424.507 992.082 424.187 992.535 423.888C992.994 423.589 993.511 423.275 994.087 422.944C994.615 422.64 995.061 422.371 995.423 422.136C995.786 421.896 996.061 421.645 996.247 421.384C996.439 421.117 996.535 420.789 996.535 420.4C996.535 419.701 996.399 419.216 996.127 418.944C995.855 418.667 995.367 418.528 994.663 418.528H992.951C992.333 418.528 991.882 418.635 991.599 418.848C991.322 419.061 991.159 419.435 991.111 419.968C991.095 420.107 991.053 420.211 990.983 420.28C990.914 420.349 990.813 420.384 990.679 420.384C990.541 420.384 990.434 420.347 990.359 420.272C990.285 420.192 990.253 420.083 990.263 419.944C990.327 419.171 990.578 418.603 991.015 418.24C991.453 417.872 992.098 417.688 992.951 417.688H994.663C995.597 417.688 996.282 417.907 996.719 418.344C997.157 418.781 997.375 419.467 997.375 420.4C997.375 420.949 997.245 421.413 996.983 421.792C996.727 422.165 996.381 422.499 995.943 422.792C995.511 423.08 995.031 423.373 994.503 423.672C993.826 424.061 993.258 424.413 992.799 424.728C992.341 425.037 991.983 425.379 991.727 425.752C991.477 426.12 991.325 426.589 991.271 427.16H997.039C997.322 427.16 997.463 427.299 997.463 427.576C997.463 427.859 997.322 428 997.039 428ZM1001.83 427.984C1000.92 427.984 1000.24 427.792 999.773 427.408C999.309 427.019 999.045 426.408 998.981 425.576C998.97 425.437 999.002 425.331 999.077 425.256C999.152 425.176 999.258 425.136 999.397 425.136C999.658 425.136 999.8 425.275 999.821 425.552C999.874 426.144 1000.05 426.557 1000.35 426.792C1000.65 427.027 1001.15 427.144 1001.83 427.144H1003.65C1004.42 427.144 1004.94 426.997 1005.24 426.704C1005.54 426.405 1005.69 425.883 1005.69 425.136C1005.69 424.384 1005.54 423.861 1005.24 423.568C1004.94 423.269 1004.42 423.12 1003.65 423.12H1002.17C1001.89 423.12 1001.75 422.981 1001.75 422.704C1001.75 422.421 1001.89 422.28 1002.17 422.28H1003.87C1004.46 422.275 1004.87 422.117 1005.09 421.808C1005.32 421.493 1005.43 421.024 1005.43 420.4C1005.43 419.701 1005.29 419.216 1005.02 418.944C1004.75 418.667 1004.26 418.528 1003.56 418.528H1002.01C1001.39 418.528 1000.94 418.635 1000.65 418.848C1000.38 419.061 1000.21 419.435 1000.17 419.968C1000.13 420.245 999.989 420.384 999.733 420.384C999.594 420.384 999.488 420.347 999.413 420.272C999.338 420.192 999.309 420.083 999.325 419.944C999.384 419.171 999.632 418.603 1000.07 418.24C1000.51 417.872 1001.15 417.688 1002.01 417.688H1003.56C1004.49 417.688 1005.18 417.907 1005.61 418.344C1006.05 418.781 1006.27 419.467 1006.27 420.4C1006.27 421.472 1005.88 422.205 1005.11 422.6C1005.6 422.808 1005.96 423.123 1006.18 423.544C1006.41 423.96 1006.53 424.491 1006.53 425.136C1006.53 426.117 1006.3 426.837 1005.84 427.296C1005.38 427.755 1004.65 427.984 1003.65 427.984H1001.83Z" fill="white"/>
<g clip-path="url(#clip0_188_14)">
<path d="M864.916 237.004C868.787 237.004 871.926 233.858 871.926 229.977C871.926 226.096 868.787 222.949 864.916 222.949C861.044 222.949 857.906 226.096 857.906 229.977C857.906 233.858 861.044 237.004 864.916 237.004Z" fill="#2A4D8E"/>
<path d="M899.966 237.004C903.838 237.004 906.976 233.858 906.976 229.977C906.976 226.096 903.838 222.949 899.966 222.949C896.095 222.949 892.956 226.096 892.956 229.977C892.956 233.858 896.095 237.004 899.966 237.004Z" fill="#2A4D8E"/>
<path d="M864.916 273C841.248 273 822 253.704 822 229.977C822 206.25 841.248 186.954 864.916 186.954C875.253 186.954 885.209 190.718 893.051 197.531C895.641 199.794 896.449 203.654 894.643 206.607C892.291 210.467 887.205 211.11 883.997 208.275C875.348 200.628 862.73 198.603 851.609 204.249C843.553 208.347 837.826 216.255 836.377 225.213C833.477 243.294 847.403 258.993 864.892 258.993C871.76 258.993 878.389 256.515 883.641 252.013C886.516 249.559 890.841 249.321 893.526 252.013C896.449 254.895 896.259 259.612 893.241 262.28C885.376 269.236 875.324 273.048 864.892 273.048L864.916 273Z" fill="#2A4D8E"/>
<path d="M835.973 214.421V184C828.273 184 822.048 190.265 822.048 197.96V229.977C825.588 223.878 830.341 218.59 835.973 214.445V214.421Z" fill="#2A4D8E"/>
<path d="M864.916 273C841.248 273 822 253.704 822 229.977C822 206.25 841.248 186.954 864.916 186.954C875.253 186.954 885.209 190.718 893.051 197.531C895.641 199.794 896.449 203.654 894.643 206.607C892.291 210.467 887.205 211.11 883.997 208.275C875.348 200.628 862.73 198.603 851.609 204.249C843.553 208.347 837.826 216.255 836.377 225.213C833.477 243.294 847.403 258.993 864.892 258.993C871.76 258.993 878.389 256.515 883.641 252.013C886.516 249.559 890.841 249.321 893.526 252.013C896.449 254.895 896.259 259.612 893.241 262.28C885.376 269.236 875.324 273.048 864.892 273.048L864.916 273Z" fill="#2A4D8E"/>
</g>
<defs>
<linearGradient id="paint0_linear_188_14" x1="864" y1="0" x2="864" y2="457" gradientUnits="userSpaceOnUse">
<stop stop-color="#6577C9"/>
<stop offset="1" stop-color="#2A4D8E"/>
</linearGradient>
<linearGradient id="paint1_linear_188_14" x1="6.15898e-08" y1="70.5" x2="1728" y2="70.4998" gradientUnits="userSpaceOnUse">
<stop stop-color="#0C1016"/>
<stop offset="0.495" stop-color="white"/>
<stop offset="1" stop-color="#0C1016"/>
</linearGradient>
<linearGradient id="paint2_linear_188_14" x1="6.15898e-08" y1="3.10107" x2="1728" y2="3.10086" gradientUnits="userSpaceOnUse">
<stop stop-color="#0C1016"/>
<stop offset="0.495" stop-color="white"/>
<stop offset="1" stop-color="#0C1016"/>
</linearGradient>
<linearGradient id="paint3_linear_188_14" x1="6.15898e-08" y1="387.821" x2="1728" y2="387.821" gradientUnits="userSpaceOnUse">
<stop stop-color="#0C1016"/>
<stop offset="0.495" stop-color="white"/>
<stop offset="1" stop-color="#0C1016"/>
</linearGradient>
<linearGradient id="paint4_linear_188_14" x1="408.5" y1="-137" x2="408.5" y2="907" gradientUnits="userSpaceOnUse">
<stop offset="0.735" stop-color="white"/>
<stop offset="1" stop-color="white" stop-opacity="0"/>
</linearGradient>
<linearGradient id="paint5_linear_188_14" x1="1226.5" y1="-137" x2="1226.5" y2="907" gradientUnits="userSpaceOnUse">
<stop offset="0.735" stop-color="white"/>
<stop offset="1" stop-color="white" stop-opacity="0"/>
</linearGradient>
<linearGradient id="paint6_linear_188_14" x1="512.5" y1="-137" x2="512.5" y2="907" gradientUnits="userSpaceOnUse">
<stop offset="0.735" stop-color="white"/>
<stop offset="1" stop-color="white" stop-opacity="0"/>
</linearGradient>
<linearGradient id="paint7_linear_188_14" x1="1330.5" y1="-137" x2="1330.5" y2="907" gradientUnits="userSpaceOnUse">
<stop offset="0.735" stop-color="white"/>
<stop offset="1" stop-color="white" stop-opacity="0"/>
</linearGradient>
<clipPath id="clip0_188_14">
<rect width="85" height="89" fill="white" transform="translate(822 184)"/>
</clipPath>
</defs>
</svg>
