<svg width="36" height="38" viewBox="0 0 36 38" fill="none" xmlns="http://www.w3.org/2000/svg">
<g clip-path="url(#clip0_7_182)">
<path d="M18.06 22.25C19.6892 22.25 21.01 20.9292 21.01 19.3C21.01 17.6708 19.6892 16.35 18.06 16.35C16.4307 16.35 15.11 17.6708 15.11 19.3C15.11 20.9292 16.4307 22.25 18.06 22.25Z" fill="#F2F3F8"/>
<path d="M32.81 22.25C34.4392 22.25 35.76 20.9292 35.76 19.3C35.76 17.6708 34.4392 16.35 32.81 16.35C31.1807 16.35 29.86 17.6708 29.86 19.3C29.86 20.9292 31.1807 22.25 32.81 22.25Z" fill="#F2F3F8"/>
<path d="M18.06 37.36C8.1 37.36 0 29.26 0 19.3C0 9.34 8.1 1.24001 18.06 1.24001C22.41 1.24001 26.6 2.82001 29.9 5.68001C30.99 6.63 31.33 8.25001 30.57 9.49001C29.58 11.11 27.44 11.38 26.09 10.19C22.45 6.98001 17.14 6.13001 12.46 8.50001C9.07 10.22 6.66 13.54 6.05 17.3C4.83 24.89 10.69 31.48 18.05 31.48C20.94 31.48 23.73 30.44 25.94 28.55C27.15 27.52 28.97 27.42 30.1 28.55C31.33 29.76 31.25 31.74 29.98 32.86C26.67 35.78 22.44 37.38 18.05 37.38L18.06 37.36Z" fill="#F2F3F8"/>
<path d="M5.88002 12.77V0C2.64002 0 0.0200195 2.63 0.0200195 5.86V19.3C1.51002 16.74 3.51002 14.52 5.88002 12.78V12.77Z" fill="#F2F3F8"/>
<path d="M18.06 37.36C8.1 37.36 0 29.26 0 19.3C0 9.34 8.1 1.24001 18.06 1.24001C22.41 1.24001 26.6 2.82001 29.9 5.68001C30.99 6.63 31.33 8.25001 30.57 9.49001C29.58 11.11 27.44 11.38 26.09 10.19C22.45 6.98001 17.14 6.13001 12.46 8.50001C9.07 10.22 6.66 13.54 6.05 17.3C4.83 24.89 10.69 31.48 18.05 31.48C20.94 31.48 23.73 30.44 25.94 28.55C27.15 27.52 28.97 27.42 30.1 28.55C31.33 29.76 31.25 31.74 29.98 32.86C26.67 35.78 22.44 37.38 18.05 37.38L18.06 37.36Z" fill="#F2F3F8"/>
</g>
<defs>
<clipPath id="clip0_7_182">
<rect width="35.77" height="37.36" fill="white"/>
</clipPath>
</defs>
</svg>
