<svg width="27" height="26" viewBox="0 0 27 26" fill="none" xmlns="http://www.w3.org/2000/svg">
<path d="M2.40772 15.6448L2.46963 15.0294L2.4882 15.0307L2.50925 15.0344L2.40772 15.6448ZM2.40772 15.6448L2.34581 16.2615L2.32476 16.259L2.30495 16.2553L2.40772 15.6448ZM7.40986 22.4327L7.01737 21.9535L7.02356 21.9498L7.40986 22.4327ZM7.40986 22.4327L7.80236 22.9119L7.79617 22.9168L7.40986 22.4327ZM18.7959 22.4327L19.1884 21.9548L19.1971 21.9622L19.207 21.9709L18.7959 22.4327ZM18.7959 22.4327L18.4034 22.9131L18.3935 22.9045L18.3849 22.897L18.7959 22.4327ZM23.7993 10.3552V9.73607H23.829L23.86 9.73855L23.7993 10.3552ZM23.7993 10.3552V10.9743H23.7684L23.7374 10.9706L23.7993 10.3552ZM9.84407 2.24117C9.86263 2.01666 9.88865 1.79283 9.92208 1.57005C9.95041 1.37293 10.0098 1.18153 10.0979 1.00295L11.1986 1.57129C11.1862 1.59606 11.1652 1.64559 11.1441 1.77436C11.1206 1.91056 11.1033 2.08763 11.0748 2.36375L9.84407 2.24117ZM9.6014 3.73074C9.61625 3.71216 9.66083 3.63663 9.70912 3.37165C9.76673 2.99648 9.81009 2.61943 9.8416 2.24117L11.0748 2.36375C11.0253 2.86027 10.9844 3.27136 10.9275 3.59082C10.8717 3.90285 10.7851 4.22107 10.5857 4.48233L9.6014 3.73074ZM9.02689 3.96847C9.13511 3.98303 9.24526 3.96871 9.34615 3.92696C9.44705 3.88521 9.53511 3.81751 9.6014 3.73074L10.587 4.48109C10.3881 4.74184 10.1238 4.9453 9.82088 5.07079C9.51794 5.19627 9.18718 5.23932 8.86222 5.19554L9.02689 3.96847ZM7.8036 3.08563C8.206 3.41623 8.48087 3.64035 8.69754 3.79017C8.91917 3.94371 9.00461 3.96476 9.02689 3.96847L8.86222 5.19554C8.53782 5.1522 8.25181 4.98876 7.99056 4.80674C7.72436 4.62101 7.40615 4.36099 7.01861 4.044L7.8036 3.08563ZM6.74869 2.39099C6.94679 2.45414 7.11395 2.55443 7.27243 2.66711C7.42596 2.77607 7.60054 2.91971 7.8036 3.08563L7.01861 4.044C6.80441 3.86818 6.66573 3.7555 6.5543 3.67625C6.49897 3.63167 6.43718 3.59577 6.37105 3.56977L6.74869 2.39099ZM5.44491 2.45538C5.8574 2.27685 6.32062 2.25398 6.74869 2.39099L6.37105 3.56977C6.22864 3.52467 6.07473 3.53258 5.9377 3.59206L5.44491 2.45538ZM4.4643 3.25279C4.65002 3.06705 4.80974 2.90609 4.95089 2.78226C5.09733 2.64797 5.26406 2.53765 5.44491 2.45538L5.9377 3.59206C5.9117 3.6032 5.86465 3.6292 5.76559 3.71588C5.66283 3.80503 5.53654 3.93133 5.33967 4.1282L4.4643 3.25279ZM3.35862 4.35851L4.4643 3.25279L5.33967 4.1282L4.234 5.23393L3.35862 4.35851ZM2.56125 5.33918C2.64395 5.15826 2.75468 4.99152 2.88936 4.84513C3.01318 4.70397 3.17414 4.54424 3.35862 4.35851L4.234 5.23393C4.03713 5.4308 3.91208 5.5571 3.82046 5.65987C3.73378 5.75893 3.70902 5.80598 3.69788 5.83198L2.56125 5.33918ZM2.49687 6.64301C2.35986 6.21493 2.38274 5.75168 2.56125 5.33918L3.69788 5.83198C3.63881 5.96917 3.63134 6.12309 3.67683 6.26536L2.49687 6.64301ZM3.19147 7.69797C3.02556 7.4949 2.88193 7.32032 2.77298 7.16678C2.66154 7.00829 2.56001 6.84113 2.49687 6.64301L3.67683 6.26536C3.70243 6.33142 3.73792 6.39321 3.78207 6.44861C3.90002 6.607 4.02265 6.76185 4.1498 6.91294L3.19147 7.69797ZM4.07428 8.92133C4.07056 8.89904 4.04951 8.8136 3.89598 8.59196C3.74616 8.37527 3.52206 8.10039 3.19147 7.69797L4.1498 6.91294C4.46677 7.3005 4.72802 7.61872 4.91251 7.88494C5.09452 8.14497 5.25795 8.43223 5.30129 8.75664L4.07428 8.92133ZM3.83655 9.49586C3.92332 9.42956 3.99102 9.3415 4.03277 9.2406C4.07452 9.1397 4.08884 9.02955 4.07428 8.92133L5.30129 8.75664C5.34483 9.08143 5.30168 9.41195 5.1762 9.71466C5.05073 10.0174 4.84741 10.2815 4.58687 10.4802L3.83655 9.49586ZM2.34705 9.73731C2.86584 9.6853 3.21747 9.65063 3.47749 9.60358C3.74245 9.55529 3.81798 9.51071 3.83655 9.49586L4.58687 10.4802C4.32686 10.6783 4.00866 10.765 3.6954 10.822C3.3772 10.8789 2.96737 10.921 2.46963 10.9706L2.34705 9.73731ZM1.1089 9.99238C1.28747 9.90423 1.47886 9.84489 1.67597 9.81655C1.86169 9.7856 2.08704 9.76331 2.34705 9.73731L2.47087 10.9693C2.19352 10.9978 2.01647 11.0151 1.88027 11.0387C1.81024 11.0466 1.74178 11.0649 1.67721 11.0932L1.1089 9.99238ZM0.233524 10.9594C0.398806 10.5418 0.709789 10.1983 1.1089 9.99238L1.67721 11.0932C1.54409 11.1616 1.44028 11.276 1.385 11.4151L0.233524 10.9594ZM0.103516 12.2162C0.103516 11.9549 0.103516 11.7284 0.115898 11.5401C0.124241 11.3416 0.16394 11.1456 0.233524 10.9594L1.385 11.4151C1.3751 11.4411 1.36024 11.4931 1.35158 11.6231C1.34193 11.8211 1.33863 12.0193 1.34167 12.2174L0.103516 12.2162ZM0.103516 13.7813V12.2162H1.34167V13.7813H0.103516ZM0.233524 15.0369C0.156757 14.8437 0.128279 14.6505 0.115898 14.4561C0.103516 14.2692 0.103516 14.0426 0.103516 13.7813H1.34167C1.34167 14.0587 1.34167 14.237 1.35158 14.3744C1.35219 14.445 1.36346 14.5152 1.385 14.5824L0.233524 15.0369ZM1.1089 16.0051C0.709566 15.7989 0.398554 15.4549 0.233524 15.0369L1.385 14.5824C1.44028 14.7215 1.54409 14.8359 1.67721 14.9044L1.1089 16.0051ZM2.34705 16.2602C2.08704 16.2342 1.86046 16.2107 1.67597 16.1797C1.48406 16.1488 1.29462 16.1005 1.11013 16.0064L1.67721 14.9044C1.74176 14.9327 1.81022 14.951 1.88027 14.9589C2.01647 14.9824 2.19352 14.9997 2.46963 15.0282L2.34705 16.2602ZM3.83531 16.5017C3.81674 16.4868 3.74121 16.441 3.47625 16.3939C3.21624 16.3469 2.8646 16.311 2.34705 16.2602L2.46963 15.0282C2.96613 15.0777 3.3772 15.1173 3.69664 15.1755C4.00865 15.2313 4.32562 15.3179 4.58687 15.516L3.83531 16.5017ZM4.07428 17.0762C4.0887 16.9679 4.07419 16.8576 4.03222 16.7567C3.99024 16.6558 3.92231 16.5678 3.83531 16.5017L4.58687 15.516C4.84761 15.7149 5.05106 15.9792 5.17654 16.2822C5.30202 16.5851 5.34506 16.9159 5.30129 17.2409L4.07428 17.0762ZM3.19147 18.2996C3.43649 18.0097 3.67146 17.7115 3.89598 17.4056C4.04951 17.1852 4.07056 17.0985 4.07428 17.0762L5.30005 17.2421C5.25671 17.5665 5.09328 17.8513 4.91251 18.1126C4.72678 18.3776 4.46677 18.697 4.1498 19.0833L3.19147 18.2996ZM2.49687 19.3545C2.56073 19.1661 2.65391 18.9889 2.77298 18.8295C2.90691 18.6485 3.04648 18.4718 3.19147 18.2996L4.1498 19.0833C3.97399 19.2988 3.86131 19.4362 3.78207 19.5489C3.73805 19.604 3.70257 19.6653 3.67683 19.7309L2.49687 19.3545ZM2.56125 20.6583C2.38274 20.2458 2.35986 19.7826 2.49687 19.3545L3.67683 19.7309C3.63103 19.8736 3.63851 20.028 3.69788 20.1655L2.56125 20.6583ZM3.35739 21.6378C3.1729 21.4533 3.01318 21.2936 2.88936 21.1524C2.76059 21.005 2.64421 20.8503 2.56125 20.6583L3.69788 20.1655C3.73029 20.2284 3.77203 20.286 3.82169 20.3364C3.95485 20.4825 4.09234 20.6245 4.234 20.7624L3.35739 21.6378ZM4.4643 22.7447L3.35739 21.6378L4.234 20.7624L5.33967 21.8693L4.4643 22.7447ZM5.44491 23.5409C5.25424 23.4579 5.09823 23.3428 4.95089 23.214C4.80974 23.0902 4.65002 22.9292 4.4643 22.7435L5.33967 21.8693C5.53654 22.0662 5.66283 22.1913 5.76559 22.2816C5.81638 22.3314 5.8744 22.3731 5.9377 22.4055L5.44491 23.5409ZM6.74869 23.6065C6.32047 23.7432 5.85725 23.7198 5.44491 23.5409L5.9377 22.4055C6.07488 22.4645 6.22879 22.472 6.37105 22.4265L6.74869 23.6065ZM7.8036 22.9107C7.60054 23.0766 7.42596 23.2202 7.27243 23.3292C7.11395 23.4418 6.94679 23.5434 6.74869 23.6065L6.37105 22.4265C6.43711 22.4009 6.4989 22.3654 6.5543 22.3213C6.7127 22.2029 6.86754 22.0799 7.01861 21.9523L7.8036 22.9107ZM9.02689 22.029C9.00461 22.0315 8.91794 22.0538 8.69754 22.2074C8.48087 22.3572 8.206 22.5813 7.8036 22.9107L7.01861 21.9523C7.40615 21.6365 7.72436 21.3753 7.99056 21.1895C8.25057 21.0088 8.53782 20.8453 8.86222 20.802L9.02689 22.029ZM9.6014 22.2668C9.53511 22.18 9.44705 22.1123 9.34615 22.0706C9.24526 22.0288 9.13511 22.0145 9.02689 22.029L8.86222 20.802C9.18687 20.7583 9.51731 20.8013 9.82 20.9265C10.1227 21.0518 10.3869 21.2549 10.5857 21.5152L9.6014 22.2668ZM9.84284 23.7564C9.79083 23.2375 9.75617 22.8859 9.70912 22.6259C9.66083 22.3609 9.61625 22.2854 9.6014 22.2668L10.5857 21.5152C10.7838 21.7752 10.8705 22.0947 10.9275 22.4067C10.9844 22.7249 11.0265 23.1348 11.076 23.6325L9.84284 23.7564ZM10.0979 24.9946C10.0026 24.8088 9.95551 24.6194 9.92332 24.4275C9.89112 24.2417 9.86884 24.0164 9.84284 23.7564L11.076 23.6325C11.0932 23.8301 11.1151 24.027 11.1441 24.2232C11.152 24.2932 11.1704 24.3617 11.1986 24.4262L10.0979 24.9946ZM11.0649 25.87C10.6473 25.7047 10.3038 25.3937 10.0979 24.9946L11.1986 24.4262C11.2671 24.5594 11.3814 24.6632 11.5205 24.7184L11.0649 25.87ZM12.3216 26C12.0604 26 11.8338 26 11.6456 25.9876C11.4524 25.9752 11.258 25.9468 11.0649 25.87L11.5205 24.7184C11.5878 24.74 11.6579 24.7513 11.7285 24.7519C11.8647 24.7618 12.0443 24.7618 12.3229 24.7618L12.3216 26ZM13.8866 26H12.3216L12.3229 24.7618H13.8866V26ZM15.1434 25.87C14.949 25.9468 14.7558 25.9752 14.5614 25.9876C14.3745 26 14.1479 26 13.8866 26V24.7618C14.164 24.7618 14.3423 24.7618 14.4797 24.7519C14.5503 24.7512 14.6205 24.74 14.6877 24.7184L15.1434 25.87ZM16.1104 24.9946C15.9045 25.3937 15.5609 25.7047 15.1434 25.87L14.6877 24.7184C14.8268 24.6632 14.9412 24.5594 15.0097 24.4262L16.1104 24.9946ZM16.3654 23.7564C16.3394 24.0164 16.3159 24.243 16.2862 24.4275C16.254 24.6194 16.2057 24.8088 16.1104 24.9946L15.0097 24.4262C15.0379 24.3617 15.0562 24.2932 15.0641 24.2232C15.0931 24.0274 15.1163 23.8309 15.1335 23.6338L16.3654 23.7564ZM16.6069 22.2668C16.592 22.2854 16.5474 22.3609 16.4992 22.6259C16.4521 22.8859 16.4174 23.2388 16.3654 23.7564L15.1335 23.6338C15.183 23.1372 15.2239 22.7262 15.2808 22.4067C15.3365 22.0947 15.4232 21.7765 15.6225 21.5152L16.6069 22.2668ZM17.1814 22.029C17.0732 22.0145 16.963 22.0288 16.8621 22.0706C16.7612 22.1123 16.6732 22.18 16.6069 22.2668L15.6225 21.5152C15.8213 21.2546 16.0854 21.0525 16.3881 20.9271C16.6908 20.8016 17.0213 20.7584 17.3461 20.802L17.1814 22.029ZM18.4047 22.9119C18.0023 22.5813 17.7274 22.3572 17.5107 22.2074C17.2891 22.0538 17.2037 22.0315 17.1814 22.029L17.3461 20.802C17.6704 20.8453 17.9565 21.0088 18.2177 21.1908C18.4839 21.3753 18.8021 21.6365 19.1897 21.9535L18.4047 22.9119ZM19.4596 23.6065C19.2615 23.5434 19.0943 23.4431 18.9358 23.3304C18.7823 23.2214 18.6077 23.0778 18.4047 22.9119L19.1897 21.9535C19.3408 22.0807 19.4956 22.2033 19.654 22.3213C19.7093 22.3655 19.7711 22.401 19.8372 22.4265L19.4596 23.6065ZM20.7634 23.5434C20.3509 23.7219 19.8876 23.7435 19.4596 23.6065L19.8372 22.4265C19.9795 22.472 20.1334 22.4645 20.2706 22.4055L20.7634 23.5434ZM21.744 22.7447C21.5583 22.9305 21.3985 23.0914 21.2574 23.2153C21.1113 23.3428 20.954 23.4604 20.7634 23.5434L20.2706 22.4055C20.3339 22.3732 20.3919 22.3314 20.4427 22.2816C20.5887 22.1484 20.7307 22.0109 20.8686 21.8693L21.744 22.7447ZM22.8496 21.639L21.744 22.7447L20.8686 21.8693L21.9743 20.7636L22.8496 21.639ZM23.647 20.6583C23.5641 20.849 23.4477 21.005 23.3189 21.1524C23.1951 21.2936 23.0341 21.4533 22.8496 21.639L21.9743 20.7636C22.1163 20.6257 22.2542 20.4837 22.3878 20.3377C22.4376 20.2869 22.4793 20.2288 22.5116 20.1655L23.647 20.6583ZM23.7114 19.3545C23.8484 19.7826 23.8255 20.2458 23.647 20.6583L22.5116 20.1655C22.5711 20.0285 22.5778 19.8746 22.5327 19.7322L23.7114 19.3545ZM23.0168 18.2996C23.1827 18.5026 23.3263 18.6772 23.4353 18.8307C23.5542 18.9898 23.6474 19.1665 23.7114 19.3545L22.5327 19.7322C22.5067 19.666 22.4708 19.6042 22.4262 19.5489C22.347 19.4375 22.2343 19.2988 22.0585 19.0846L23.0168 18.2996ZM22.134 17.0762C22.1377 17.0985 22.1588 17.1839 22.3123 17.4056C22.4633 17.6222 22.6862 17.8971 23.0168 18.2996L22.0585 19.0846C21.7415 18.697 21.4802 18.3788 21.2958 18.1126C21.1138 17.8526 20.9503 17.5653 20.907 17.2409L22.134 17.0762ZM22.3717 16.5017C22.2849 16.568 22.2173 16.656 22.1755 16.7569C22.1338 16.8578 22.1194 16.968 22.134 17.0762L20.907 17.2409C20.8634 16.9161 20.9066 16.5856 21.0321 16.2829C21.1575 15.9801 21.3609 15.716 21.6214 15.5173L22.3717 16.5017ZM23.8612 16.2615C23.3424 16.3122 22.9908 16.3469 22.7308 16.3939C22.4658 16.4422 22.3903 16.4868 22.3717 16.5017L21.6214 15.516C21.8814 15.3179 22.1996 15.2313 22.5129 15.1755C22.8311 15.1186 23.2409 15.0765 23.7386 15.027L23.8612 16.2615ZM25.0994 16.0051C24.9136 16.1005 24.7242 16.1475 24.5323 16.1797C24.3466 16.2119 24.1225 16.2354 23.8612 16.2615L23.7374 15.0282C23.9349 15.011 24.1319 14.9879 24.328 14.9589C24.398 14.951 24.4665 14.9326 24.5311 14.9044L25.0994 16.0051ZM25.9747 15.0369C25.8097 15.4549 25.4987 15.7989 25.0994 16.0051L24.5311 14.9044C24.6642 14.8359 24.768 14.7215 24.8233 14.5824L25.9747 15.0369ZM26.1035 13.7838C26.1035 14.0451 26.1035 14.2716 26.0911 14.4599C26.0831 14.6581 26.0434 14.8537 25.9735 15.0393L24.822 14.5849C24.8436 14.5176 24.8548 14.4475 24.8555 14.3769C24.8647 14.1789 24.868 13.9807 24.8654 13.7825L26.1035 13.7838ZM26.1035 12.2187V13.7838H24.8654V12.2187H26.1035ZM25.9735 10.9619C26.0431 11.1485 26.0828 11.3449 26.0911 11.5439C26.1035 11.7308 26.1035 11.9574 26.1035 12.2187H24.8654C24.8654 11.9413 24.8654 11.763 24.8555 11.6256C24.8549 11.555 24.8436 11.4848 24.822 11.4176L25.9735 10.9619ZM25.0981 9.99485C25.4972 10.2008 25.8082 10.5443 25.9735 10.9619L24.822 11.4176C24.7667 11.2785 24.6629 11.1641 24.5298 11.0956L25.0981 9.99485ZM23.86 9.73855C24.12 9.76455 24.3466 9.78931 24.5311 9.81903C24.7282 9.84737 24.9196 9.90671 25.0981 9.99485L24.5298 11.0956C24.5051 11.0832 24.4555 11.0622 24.3268 11.0411C24.1906 11.0176 24.0135 11.0003 23.7374 10.9718L23.86 9.73855ZM22.3705 9.49833C22.3891 9.51319 22.4646 9.55777 22.7295 9.60606C22.9896 9.65311 23.3412 9.68654 23.86 9.73855L23.7374 10.9718C23.2409 10.9223 22.8286 10.8814 22.5104 10.8245C22.1971 10.7687 21.8789 10.6821 21.6189 10.4827L22.3705 9.49833ZM22.1328 8.9238C22.1182 9.03203 22.1325 9.14217 22.1743 9.24308C22.216 9.34398 22.2837 9.43204 22.3705 9.49833L21.6189 10.4827C21.3586 10.2838 21.1555 10.0196 21.0303 9.71694C20.905 9.41424 20.8621 9.08255 20.9057 8.75788L22.1328 8.9238ZM23.0156 7.69921C22.685 8.10287 22.4609 8.37775 22.3098 8.59444C22.1563 8.81608 22.1365 8.90151 22.1328 8.9238L20.9057 8.75788C20.9491 8.43347 21.1125 8.14868 21.2945 7.88742C21.479 7.6212 21.7403 7.30298 22.0572 6.91542L23.0156 7.69921ZM23.7102 6.64425C23.6483 6.84237 23.5467 7.01076 23.4341 7.16925C23.3251 7.32155 23.1815 7.49738 23.0156 7.69921L22.0572 6.91542C22.1844 6.76391 22.307 6.60865 22.425 6.44985C22.4694 6.3949 22.5053 6.33353 22.5314 6.26783L23.7102 6.64425ZM23.6458 5.34165C23.824 5.75379 23.8469 6.21654 23.7102 6.64425L22.5314 6.26783C22.5765 6.12542 22.5686 5.9715 22.5092 5.83446L23.6458 5.34165ZM22.8484 4.36099C23.0341 4.54548 23.1951 4.70521 23.3189 4.8476C23.4532 4.99406 23.5635 5.1608 23.6458 5.34165L22.5092 5.83446C22.4767 5.77158 22.435 5.71273 22.3853 5.66235C22.2527 5.5158 22.1152 5.37374 21.973 5.2364L22.8484 4.36099ZM21.7427 3.25402L22.8484 4.36099L21.973 5.2364L20.8674 4.12944L21.7427 3.25402ZM20.7621 2.45785C20.9429 2.54023 21.1096 2.65055 21.2561 2.78474C21.3973 2.90856 21.5583 3.06829 21.7427 3.25402L20.8674 4.12944C20.6705 3.9338 20.5442 3.8075 20.4414 3.71712C20.3424 3.63044 20.2953 3.60568 20.2693 3.59329L20.7621 2.45785ZM19.4583 2.39223C19.8866 2.25561 20.3498 2.27892 20.7621 2.45785L20.2693 3.59329C20.1323 3.53382 19.9784 3.52715 19.836 3.57224L19.4583 2.39223ZM18.4034 3.0881C18.6065 2.92218 18.7811 2.77855 18.9346 2.66959C19.0935 2.55014 19.2703 2.45653 19.4583 2.39223L19.836 3.57224C19.7699 3.59786 19.7081 3.63335 19.6527 3.67749C19.5413 3.75798 19.4026 3.87065 19.1872 4.04648L18.4034 3.0881ZM17.1801 3.97095C17.2024 3.96723 17.2879 3.94619 17.5095 3.79265C17.8155 3.56774 18.1137 3.33358 18.4034 3.0881L19.1872 4.04648C18.8009 4.36346 18.4814 4.62473 18.2165 4.80922C17.9565 4.99 17.6692 5.15344 17.3448 5.19802L17.1801 3.97095ZM16.6056 3.73197C16.6718 3.81897 16.7598 3.88691 16.8607 3.92889C16.9616 3.97086 17.0718 3.98537 17.1801 3.97095L17.3448 5.19802C17.02 5.24193 16.6893 5.19784 16.3863 5.07257C16.0834 4.94731 15.819 4.74409 15.6201 4.48357L16.6056 3.73197ZM16.3642 2.24364C16.4162 2.76121 16.4509 3.11411 16.4979 3.37289C16.5462 3.63787 16.5908 3.7134 16.6056 3.73197L15.6201 4.48357C15.422 4.22355 15.3353 3.90532 15.2796 3.59206C15.2226 3.27384 15.1805 2.86399 15.131 2.36623L16.3642 2.24364ZM16.1091 1.00543C16.2045 1.19116 16.2528 1.38061 16.285 1.57253C16.3159 1.75826 16.3382 1.98238 16.3642 2.24364L15.1322 2.36746C15.1151 2.16994 15.0919 1.97297 15.0629 1.77684C15.0551 1.70679 15.0367 1.63832 15.0084 1.57377L16.1091 1.00543ZM15.1409 0.130012C15.5591 0.295357 15.9032 0.605613 16.1091 1.00543L15.0084 1.57377C14.94 1.44065 14.8256 1.33683 14.6865 1.28155L15.1409 0.130012ZM13.8854 0C14.1467 0 14.3732 -1.15318e-08 14.5614 0.0123821C14.7596 0.0203956 14.9553 0.0601088 15.1409 0.130012L14.6865 1.28155C14.6192 1.25999 14.5491 1.24872 14.4785 1.24812C14.3423 1.23821 14.1628 1.23821 13.8842 1.23821L13.8854 0ZM12.3204 0H13.8854V1.23821H12.3204V0ZM11.0637 0.130012C11.2502 0.0603591 11.4466 0.0206585 11.6456 0.0123821C11.8326 -1.15318e-08 12.0591 0 12.3204 0V1.23821C12.043 1.23821 11.8647 1.23821 11.7273 1.24812C11.6567 1.24912 11.5866 1.26038 11.5193 1.28155L11.0637 0.130012ZM10.0967 1.00543C10.3029 0.606079 10.6469 0.29505 11.0649 0.130012L11.5193 1.28155C11.3802 1.33683 11.2658 1.44065 11.1974 1.57377L10.0967 1.00543ZM8.76936 13C8.76936 14.1494 9.22593 15.2517 10.0386 16.0644C10.8513 16.8772 11.9536 17.3337 13.1029 17.3337V18.572C11.6252 18.572 10.208 17.9849 9.16311 16.94C8.11822 15.895 7.5312 14.4778 7.5312 13H8.76936ZM13.1029 8.66625C11.9536 8.66625 10.8513 9.12284 10.0386 9.93558C9.22593 10.7483 8.76936 11.8506 8.76936 13H7.5312C7.5312 11.5222 8.11822 10.105 9.16311 9.06003C10.208 8.01508 11.6252 7.42804 13.1029 7.42804V8.66625ZM17.4364 13C17.4364 11.8506 16.9799 10.7483 16.1672 9.93558C15.3545 9.12284 14.2522 8.66625 13.1029 8.66625V7.42804C14.5806 7.42804 15.9978 8.01508 17.0427 9.06003C18.0876 10.105 18.6746 11.5222 18.6746 13H17.4364ZM13.1029 17.3337C14.2522 17.3337 15.3545 16.8772 16.1672 16.0644C16.9799 15.2517 17.4364 14.1494 17.4364 13H18.6746C18.6746 14.4778 18.0876 15.895 17.0427 16.94C15.9978 17.9849 14.5806 18.572 13.1029 18.572V17.3337Z" fill="#F2F3F8"/>
</svg>
