<svg width="30" height="31" viewBox="0 0 30 31" fill="none" xmlns="http://www.w3.org/2000/svg">
<path d="M14.8316 18.4625C16.1614 18.4625 17.2394 17.3655 17.2394 16.0123C17.2394 14.6591 16.1614 13.5621 14.8316 13.5621C13.5018 13.5621 12.4238 14.6591 12.4238 16.0123C12.4238 17.3655 13.5018 18.4625 14.8316 18.4625Z" fill="#F2F3F8"/>
<path d="M26.858 18.4625C28.1878 18.4625 29.2658 17.3655 29.2658 16.0123C29.2658 14.6591 28.1878 13.5621 26.858 13.5621C25.5282 13.5621 24.4502 14.6591 24.4502 16.0123C24.4502 17.3655 25.5282 18.4625 26.858 18.4625Z" fill="#F2F3F8"/>
<path d="M24.3502 23.4075C23.4246 22.7265 22.1613 22.892 21.2982 23.6494C19.4908 25.234 17.2019 26.1059 14.8316 26.1059C8.90286 26.1059 4.17485 20.7918 5.00663 14.5931C5.43816 11.3665 7.41441 8.51529 10.2662 7.0388C14.0812 5.0659 18.4089 5.77233 21.3795 8.43892C22.5553 9.49538 24.469 9.16444 25.182 7.57976C25.6135 6.61876 25.3321 5.46684 24.5566 4.76678C21.8611 2.34839 18.4089 1.01827 14.8316 1.01827C11.0042 1.01827 7.52073 2.50749 4.90031 4.95134V0C2.25488 0 0.116024 2.17656 0.116024 4.86225V15.4714C0.116024 15.6496 0.103516 15.8278 0.103516 16.006C0.103516 24.273 6.70771 30.9936 14.8316 30.9936C18.4089 30.9936 21.8611 29.6635 24.5566 27.2451C25.6885 26.2269 25.6573 24.3685 24.3502 23.4075Z" fill="#F2F3F8"/>
</svg>
