<svg width="603" height="601" viewBox="0 0 603 601" fill="none" xmlns="http://www.w3.org/2000/svg">
<mask id="mask0_216_188" style="mask-type:alpha" maskUnits="userSpaceOnUse" x="0" y="0" width="603" height="601">
<rect width="602.675" height="600.693" fill="#D9D9D9"/>
</mask>
<g mask="url(#mask0_216_188)">
<g filter="url(#filter0_bd_216_188)">
<rect x="100.55" y="65.4221" width="502.353" height="630.43" rx="23.9885" fill="#0C1016" fill-opacity="0.25" shape-rendering="crispEdges"/>
<rect x="101.55" y="66.4216" width="500.354" height="628.431" rx="22.9889" stroke="#2E333B" stroke-width="1.99904" shape-rendering="crispEdges"/>
</g>
<circle cx="126.727" cy="89.4178" r="6.0445" stroke="#373D48" stroke-width="0.999519"/>
<circle cx="148.542" cy="89.4178" r="6.0445" stroke="#373D48" stroke-width="0.999519"/>
<circle cx="126.727" cy="133.046" r="8.22592" stroke="#6577C9" stroke-width="0.999519"/>
<circle cx="168.174" cy="89.4178" r="6.0445" stroke="#373D48" stroke-width="0.999519"/>
<rect x="153.904" y="454.714" width="120.16" height="98.3463" rx="2.99856" stroke="#2E333B" stroke-width="1.99904"/>
<rect x="291.333" y="454.714" width="117.979" height="98.3463" rx="2.99856" stroke="#2E333B" stroke-width="1.99904"/>
<rect x="426.581" y="454.714" width="120.16" height="98.3463" rx="2.99856" stroke="#2E333B" stroke-width="1.99904"/>
<rect x="202.3" y="130.865" width="37.0841" height="4.36284" rx="2.18142" fill="#B6BDDD"/>
<rect x="261.198" y="130.865" width="34.9027" height="4.36284" rx="2.18142" fill="url(#paint0_linear_216_188)" fill-opacity="0.3"/>
<rect x="317.916" y="130.865" width="34.9027" height="4.36284" rx="2.18142" fill="url(#paint1_linear_216_188)" fill-opacity="0.3"/>
<rect x="374.632" y="130.865" width="37.0841" height="4.36284" rx="2.18142" fill="url(#paint2_linear_216_188)" fill-opacity="0.3"/>
<rect x="538.738" y="127.002" width="33.9032" height="12.089" rx="3.49832" stroke="#6577C9" stroke-width="0.999519"/>
<rect x="153.404" y="290.608" width="33.9032" height="12.089" rx="3.49832" stroke="#6577C9" stroke-width="0.999519"/>
<rect x="354.092" y="290.608" width="33.9032" height="12.089" rx="3.49832" fill="#6577C9" stroke="#6577C9" stroke-width="0.999519"/>
<rect x="312.645" y="290.608" width="33.9032" height="12.089" rx="3.49832" stroke="#6577C9" stroke-width="0.999519"/>
<rect x="157.264" y="564.967" width="111.252" height="6.54426" rx="1.99904" fill="#606A7B" fill-opacity="0.5"/>
<rect x="294.694" y="564.967" width="111.252" height="6.54426" rx="1.99904" fill="#606A7B" fill-opacity="0.5"/>
<rect x="294.694" y="418.812" width="111.252" height="6.54426" rx="1.99904" fill="#606A7B" fill-opacity="0.5"/>
<rect x="432.124" y="564.967" width="111.252" height="6.54426" rx="1.99904" fill="#606A7B" fill-opacity="0.5"/>
<path d="M102.732 111.232L604.458 111.232" stroke="#2E333B" stroke-width="1.99904"/>
<path d="M102.732 152.679L604.458 152.679" stroke="#2E333B" stroke-width="1.99904"/>
<path d="M102.732 381.728L604.458 381.728" stroke="#2E333B" stroke-width="1.99904"/>
<rect x="235.796" y="211.577" width="229.049" height="21.8142" rx="3.99808" fill="url(#paint3_linear_216_188)" fill-opacity="0.3"/>
<rect x="285.969" y="248.661" width="128.704" height="8.72568" rx="1.99904" fill="#606A7B" fill-opacity="0.5"/>
<g filter="url(#filter1_bd_216_188)">
<rect x="0.202393" y="172.312" width="205.053" height="482.094" rx="23.9885" fill="#0C1016" fill-opacity="0.25" shape-rendering="crispEdges"/>
<rect x="1.20191" y="173.311" width="203.054" height="480.095" rx="22.9889" stroke="#2E333B" stroke-width="1.99904" shape-rendering="crispEdges"/>
</g>
<g filter="url(#filter2_d_216_188)">
<rect x="104.911" y="353.369" width="71.9869" height="69.8054" rx="3.99808" fill="#FF6E40" fill-opacity="0.05" shape-rendering="crispEdges"/>
<rect x="105.41" y="353.869" width="70.9873" height="68.8059" rx="3.49832" stroke="#FF6E40" stroke-width="0.999519" shape-rendering="crispEdges"/>
</g>
<rect x="26.3794" y="257.387" width="54.5355" height="8.72568" rx="1.99904" fill="#606A7B" fill-opacity="0.5"/>
<rect x="26.3794" y="458.078" width="54.5355" height="8.72568" rx="1.99904" fill="#606A7B" fill-opacity="0.5"/>
<rect x="35.105" y="530.064" width="54.5355" height="8.72568" rx="1.99904" fill="#606A7B" fill-opacity="0.5"/>
<rect x="35.105" y="329.374" width="54.5355" height="8.72568" rx="1.99904" fill="#606A7B" fill-opacity="0.5"/>
<rect x="35.105" y="405.723" width="54.5355" height="8.72568" rx="1.99904" fill="#606A7B" fill-opacity="0.5"/>
<rect x="113.636" y="530.064" width="54.5355" height="8.72568" rx="1.99904" fill="#606A7B" fill-opacity="0.5"/>
<rect x="113.636" y="329.374" width="54.5355" height="8.72568" rx="1.99904" fill="#606A7B" fill-opacity="0.5"/>
<circle cx="139.813" cy="305.378" r="12.5888" stroke="#6577C9" stroke-width="0.999519"/>
<circle cx="139.813" cy="506.069" r="12.5888" stroke="#6577C9" stroke-width="0.999519"/>
<circle cx="63.4635" cy="305.378" r="12.5888" stroke="#6577C9" stroke-width="0.999519"/>
<circle cx="63.4635" cy="506.069" r="12.5888" stroke="#6577C9" stroke-width="0.999519"/>
<circle cx="139.813" cy="582.419" r="12.5888" stroke="#6577C9" stroke-width="0.999519"/>
<circle cx="63.4635" cy="381.728" r="12.5888" stroke="#6577C9" stroke-width="0.999519"/>
<circle cx="63.4635" cy="582.419" r="12.5888" stroke="#6577C9" stroke-width="0.999519"/>
<rect x="113.636" y="405.723" width="54.5355" height="8.72568" rx="1.99904" fill="#C3D1E8" fill-opacity="0.5"/>
<circle cx="139.813" cy="381.728" r="12.5888" fill="#FF6E40" stroke="#FF6E40" stroke-width="0.999519"/>
<g filter="url(#filter3_b_216_188)">
<rect x="163.809" y="353.369" width="71.9869" height="69.8054" rx="3.99808" fill="#FF6E40" fill-opacity="0.05"/>
<rect x="164.309" y="353.869" width="70.9873" height="68.8059" rx="3.49832" stroke="#606A7B" stroke-width="0.999519"/>
</g>
<rect x="172.534" y="405.723" width="54.5355" height="8.72568" rx="1.99904" fill="#C3D1E8" fill-opacity="0.5"/>
<circle cx="198.712" cy="381.728" r="13.0885" fill="#FF6E40"/>
<rect x="26.8792" y="201.17" width="149.518" height="20.8147" rx="3.49832" stroke="#323841" stroke-width="0.999519"/>
<rect x="26.8792" y="277.52" width="70.9873" height="68.8059" rx="3.49832" stroke="#323841" stroke-width="0.999519"/>
<rect x="105.41" y="277.52" width="70.9873" height="68.8059" rx="3.49832" stroke="#323841" stroke-width="0.999519"/>
<rect x="26.8792" y="353.869" width="70.9873" height="68.8059" rx="3.49832" stroke="#323841" stroke-width="0.999519"/>
<rect x="26.8792" y="478.21" width="70.9873" height="68.8059" rx="3.49832" stroke="#323841" stroke-width="0.999519"/>
<rect x="105.41" y="478.21" width="70.9873" height="68.8059" rx="3.49832" stroke="#323841" stroke-width="0.999519"/>
<rect x="26.8792" y="554.56" width="70.9873" height="68.8059" rx="3.49832" stroke="#323841" stroke-width="0.999519"/>
<rect x="105.41" y="554.56" width="70.9873" height="68.8059" rx="3.49832" stroke="#323841" stroke-width="0.999519"/>
<path d="M198.906 412.858L200.753 429.398C200.803 429.848 201.378 430.004 201.65 429.642L205.741 424.173C205.823 424.064 205.946 423.993 206.082 423.977L212.863 423.168C213.313 423.114 213.465 422.538 213.1 422.269L199.699 412.4C199.348 412.141 198.858 412.424 198.906 412.858Z" fill="#D9D9D9"/>
</g>
<defs>
<filter id="filter0_bd_216_188" x="60.5695" y="25.4414" width="582.315" height="710.392" filterUnits="userSpaceOnUse" color-interpolation-filters="sRGB">
<feFlood flood-opacity="0" result="BackgroundImageFix"/>
<feGaussianBlur in="BackgroundImageFix" stdDeviation="19.9904"/>
<feComposite in2="SourceAlpha" operator="in" result="effect1_backgroundBlur_216_188"/>
<feColorMatrix in="SourceAlpha" type="matrix" values="0 0 0 0 0 0 0 0 0 0 0 0 0 0 0 0 0 0 127 0" result="hardAlpha"/>
<feOffset/>
<feGaussianBlur stdDeviation="9.99519"/>
<feComposite in2="hardAlpha" operator="out"/>
<feColorMatrix type="matrix" values="0 0 0 0 0 0 0 0 0 0 0 0 0 0 0 0 0 0 0.25 0"/>
<feBlend mode="normal" in2="effect1_backgroundBlur_216_188" result="effect2_dropShadow_216_188"/>
<feBlend mode="normal" in="SourceGraphic" in2="effect2_dropShadow_216_188" result="shape"/>
</filter>
<filter id="filter1_bd_216_188" x="-39.7784" y="132.331" width="285.015" height="562.055" filterUnits="userSpaceOnUse" color-interpolation-filters="sRGB">
<feFlood flood-opacity="0" result="BackgroundImageFix"/>
<feGaussianBlur in="BackgroundImageFix" stdDeviation="19.9904"/>
<feComposite in2="SourceAlpha" operator="in" result="effect1_backgroundBlur_216_188"/>
<feColorMatrix in="SourceAlpha" type="matrix" values="0 0 0 0 0 0 0 0 0 0 0 0 0 0 0 0 0 0 127 0" result="hardAlpha"/>
<feOffset/>
<feGaussianBlur stdDeviation="9.99519"/>
<feComposite in2="hardAlpha" operator="out"/>
<feColorMatrix type="matrix" values="0 0 0 0 0 0 0 0 0 0 0 0 0 0 0 0 0 0 0.25 0"/>
<feBlend mode="normal" in2="effect1_backgroundBlur_216_188" result="effect2_dropShadow_216_188"/>
<feBlend mode="normal" in="SourceGraphic" in2="effect2_dropShadow_216_188" result="shape"/>
</filter>
<filter id="filter2_d_216_188" x="100.913" y="349.371" width="79.983" height="77.8016" filterUnits="userSpaceOnUse" color-interpolation-filters="sRGB">
<feFlood flood-opacity="0" result="BackgroundImageFix"/>
<feColorMatrix in="SourceAlpha" type="matrix" values="0 0 0 0 0 0 0 0 0 0 0 0 0 0 0 0 0 0 127 0" result="hardAlpha"/>
<feOffset/>
<feGaussianBlur stdDeviation="1.99904"/>
<feComposite in2="hardAlpha" operator="out"/>
<feColorMatrix type="matrix" values="0 0 0 0 0.235294 0 0 0 0 0.788235 0 0 0 0 0.654902 0 0 0 0.24 0"/>
<feBlend mode="normal" in2="BackgroundImageFix" result="effect1_dropShadow_216_188"/>
<feBlend mode="normal" in="SourceGraphic" in2="effect1_dropShadow_216_188" result="shape"/>
</filter>
<filter id="filter3_b_216_188" x="155.813" y="345.373" width="87.9791" height="85.7977" filterUnits="userSpaceOnUse" color-interpolation-filters="sRGB">
<feFlood flood-opacity="0" result="BackgroundImageFix"/>
<feGaussianBlur in="BackgroundImageFix" stdDeviation="3.99808"/>
<feComposite in2="SourceAlpha" operator="in" result="effect1_backgroundBlur_216_188"/>
<feBlend mode="normal" in="SourceGraphic" in2="effect1_backgroundBlur_216_188" result="shape"/>
</filter>
<linearGradient id="paint0_linear_216_188" x1="278.65" y1="130.865" x2="278.65" y2="135.227" gradientUnits="userSpaceOnUse">
<stop stop-color="#606A7B"/>
<stop offset="1" stop-color="#B0C2E1"/>
</linearGradient>
<linearGradient id="paint1_linear_216_188" x1="335.367" y1="130.865" x2="335.367" y2="135.227" gradientUnits="userSpaceOnUse">
<stop stop-color="#606A7B"/>
<stop offset="1" stop-color="#B0C2E1"/>
</linearGradient>
<linearGradient id="paint2_linear_216_188" x1="393.174" y1="130.865" x2="393.174" y2="135.227" gradientUnits="userSpaceOnUse">
<stop stop-color="#606A7B"/>
<stop offset="1" stop-color="#B0C2E1"/>
</linearGradient>
<linearGradient id="paint3_linear_216_188" x1="235.796" y1="222.484" x2="464.845" y2="222.484" gradientUnits="userSpaceOnUse">
<stop stop-color="#323B63"/>
<stop offset="1" stop-color="#6577C9"/>
</linearGradient>
</defs>
</svg>
